<svg width="40" height="40" viewBox="0 0 40 40" fill="none" xmlns="http://www.w3.org/2000/svg">
<path d="M7.50004 32.0727V16.7201C7.50004 16.3025 7.59064 15.9108 7.77183 15.5449C7.953 15.179 8.2114 14.8763 8.54704 14.6368L18.4402 7.17954C18.8895 6.83054 19.4071 6.65604 19.993 6.65604C20.5789 6.65604 21.1011 6.83054 21.5598 7.17954L31.453 14.6368C31.7886 14.8763 32.047 15.179 32.2282 15.5449C32.4094 15.9108 32.5 16.3025 32.5 16.7201V32.0727C32.5 32.6442 32.2938 33.1361 31.8816 33.5483C31.4694 33.9605 30.9776 34.1666 30.406 34.1666H24.4765C24.107 34.1666 23.7974 34.0417 23.5477 33.792C23.2979 33.5423 23.1731 33.2327 23.1731 32.8632V24.3162C23.1731 23.9467 23.0482 23.6371 22.7985 23.3874C22.5487 23.1376 22.2391 23.0128 21.8697 23.0128H18.1303C17.7609 23.0128 17.4513 23.1376 17.2015 23.3874C16.9518 23.6371 16.8269 23.9467 16.8269 24.3162V32.8632C16.8269 33.2327 16.7021 33.5423 16.4523 33.792C16.2026 34.0417 15.893 34.1666 15.5235 34.1666H9.594C9.02244 34.1666 8.53057 33.9605 8.11838 33.5483C7.70615 33.1361 7.50004 32.6442 7.50004 32.0727Z" fill="black"/>
</svg>
