<svg width="40" height="40" viewBox="0 0 40 40" fill="none" xmlns="http://www.w3.org/2000/svg">
<path d="M17.6539 35.8333C17.3327 35.8333 17.0513 35.7284 16.8099 35.5186C16.5684 35.3089 16.4199 35.0434 16.3644 34.7222L15.8013 30.8013C15.2721 30.6218 14.71 30.3636 14.1149 30.0267C13.5198 29.6898 13.0018 29.3318 12.5609 28.9529L8.95621 30.5726C8.64782 30.7101 8.33675 30.7264 8.023 30.6217C7.70925 30.517 7.4669 30.3116 7.29596 30.0053L4.94771 25.8878C4.78035 25.6001 4.73477 25.2956 4.81096 24.9744C4.88718 24.6532 5.05528 24.3932 5.31525 24.1945L8.54813 21.7917C8.49827 21.5139 8.46247 21.218 8.44075 20.9039C8.41903 20.5898 8.40817 20.2938 8.40817 20.0161C8.40817 19.7489 8.41903 19.4592 8.44075 19.1469C8.46247 18.8346 8.49827 18.5217 8.54813 18.2083L5.31525 15.8056C5.05528 15.6068 4.88629 15.3469 4.80829 15.0256C4.73032 14.7044 4.77679 14.3999 4.94771 14.1122L7.29596 10.0161C7.4669 9.71695 7.70658 9.51504 8.015 9.41035C8.32339 9.30565 8.63178 9.32202 8.94017 9.45947L12.5449 11.0524C13.0178 10.67 13.5426 10.3129 14.1192 9.98138C14.6957 9.6498 15.2511 9.39819 15.7853 9.22655L16.3644 5.27784C16.4199 4.95662 16.5684 4.69113 16.8099 4.48138C17.0513 4.27161 17.3327 4.16672 17.6539 4.16672H22.3301C22.6513 4.16672 22.9353 4.27161 23.1821 4.48138C23.4289 4.69113 23.5801 4.95662 23.6356 5.27784L24.1987 9.2148C24.7742 9.42633 25.3338 9.68434 25.8776 9.98884C26.4215 10.2933 26.9259 10.6479 27.391 11.0524L31.0598 9.45947C31.3682 9.32202 31.6766 9.30298 31.985 9.40234C32.2934 9.50171 32.5331 9.70096 32.704 10.0001L35.0523 14.0951C35.2232 14.3828 35.2743 14.6902 35.2056 15.0171C35.1369 15.344 34.9633 15.6068 34.6848 15.8056L31.3878 18.2115C31.459 18.5221 31.5019 18.8282 31.5165 19.1298C31.5311 19.4314 31.5384 19.7215 31.5384 20C31.5384 20.2678 31.5284 20.5497 31.5085 20.8456C31.4886 21.1416 31.4455 21.4573 31.3792 21.7928L34.6548 24.1945C34.9148 24.3932 35.0838 24.6532 35.1618 24.9744C35.2398 25.2956 35.1897 25.6001 35.0117 25.8878L32.6741 30.0074C32.496 30.3066 32.2505 30.5072 31.9375 30.6094C31.6244 30.7117 31.3102 30.694 30.9946 30.5566L27.391 28.9369C26.9074 29.3372 26.3935 29.7024 25.8493 30.0326C25.3052 30.3627 24.7549 30.6136 24.1987 30.7852L23.6356 34.7222C23.5801 35.0434 23.4289 35.3089 23.1821 35.5186C22.9353 35.7284 22.6513 35.8333 22.3301 35.8333H17.6539ZM19.9743 24.797C21.3084 24.797 22.4414 24.331 23.3733 23.399C24.3053 22.467 24.7713 21.334 24.7713 20C24.7713 18.666 24.3053 17.533 23.3733 16.601C22.4414 15.669 21.3084 15.2031 19.9743 15.2031C18.6418 15.2031 17.5091 15.669 16.5764 16.601C15.6438 17.533 15.1774 18.666 15.1774 20C15.1774 21.334 15.6438 22.467 16.5764 23.399C17.5091 24.331 18.6418 24.797 19.9743 24.797Z" stroke="black" stroke-width="2.5"/>
</svg>
