<svg width="40" height="40" viewBox="0 0 40 40" fill="none" xmlns="http://www.w3.org/2000/svg">
<path d="M6.04585 34.1666C5.67654 34.1666 5.36699 34.0417 5.11718 33.7919C4.86735 33.5421 4.74243 33.2325 4.74243 32.8632V17.1434C4.74243 16.767 4.86735 16.4546 5.11718 16.2061C5.36699 15.9576 5.67654 15.8334 6.04585 15.8334H11.2808C11.6501 15.8334 11.9597 15.9583 12.2095 16.2081C12.4593 16.4579 12.5842 16.7675 12.5842 17.1368V32.8566C12.5842 33.233 12.4593 33.5454 12.2095 33.7939C11.9597 34.0424 11.6501 34.1666 11.2808 34.1666H6.04585ZM17.2327 34.1666C16.8573 34.1666 16.5454 34.0417 16.2969 33.7919C16.0484 33.5421 15.9242 33.2325 15.9242 32.8632V7.13679C15.9242 6.76749 16.0491 6.45793 16.2989 6.20812C16.5487 5.95829 16.8583 5.83337 17.2276 5.83337H22.778C23.1464 5.83337 23.4566 5.95829 23.7086 6.20812C23.9605 6.45793 24.0865 6.76749 24.0865 7.13679V32.8632C24.0865 33.2325 23.9599 33.5421 23.7066 33.7919C23.4533 34.0417 23.1454 34.1666 22.7831 34.1666H17.2327ZM28.7192 34.1666C28.3499 34.1666 28.0403 34.0423 27.7905 33.7937C27.5407 33.5451 27.4158 33.2371 27.4158 32.8696V20.4634C27.4158 20.0959 27.5407 19.7879 27.7905 19.5395C28.0403 19.291 28.3499 19.1667 28.7192 19.1667H33.9542C34.3235 19.1667 34.633 19.291 34.8828 19.5396C35.1327 19.7882 35.2576 20.0963 35.2576 20.4638V32.8699C35.2576 33.2374 35.1327 33.5454 34.8828 33.7939C34.633 34.0424 34.3235 34.1666 33.9542 34.1666H28.7192Z" stroke="black" stroke-width="2.5"/>
</svg>
