<svg width="40" height="40" viewBox="0 0 40 40" fill="none" xmlns="http://www.w3.org/2000/svg">
<path d="M6.11121 34.1666C5.7419 34.1666 5.43235 34.0417 5.18254 33.7919C4.93271 33.5421 4.80779 33.2325 4.80779 32.8632V17.1434C4.80779 16.767 4.93271 16.4546 5.18254 16.2061C5.43235 15.9576 5.7419 15.8334 6.11121 15.8334H11.3462C11.7155 15.8334 12.025 15.9583 12.2749 16.2081C12.5247 16.4579 12.6496 16.7675 12.6496 17.1368V32.8566C12.6496 33.233 12.5247 33.5454 12.2749 33.7939C12.025 34.0424 11.7155 34.1666 11.3462 34.1666H6.11121ZM17.2327 34.1666C16.8573 34.1666 16.5454 34.0417 16.2969 33.7919C16.0484 33.5421 15.9242 33.2325 15.9242 32.8632V7.13679C15.9242 6.76749 16.0491 6.45793 16.2989 6.20812C16.5487 5.95829 16.8583 5.83337 17.2276 5.83337H22.778C23.1464 5.83337 23.4566 5.95829 23.7086 6.20812C23.9605 6.45793 24.0865 6.76749 24.0865 7.13679V32.8632C24.0865 33.2325 23.9599 33.5421 23.7066 33.7919C23.4533 34.0417 23.1454 34.1666 22.7831 34.1666H17.2327ZM28.6538 34.1666C28.2845 34.1666 27.975 34.0423 27.7251 33.7937C27.4753 33.5451 27.3504 33.2371 27.3504 32.8696V20.4634C27.3504 20.0959 27.4753 19.7879 27.7251 19.5395C27.975 19.291 28.2845 19.1667 28.6538 19.1667H33.8888C34.2581 19.1667 34.5677 19.291 34.8175 19.5396C35.0673 19.7882 35.1922 20.0963 35.1922 20.4638V32.8699C35.1922 33.2374 35.0673 33.5454 34.8175 33.7939C34.5677 34.0424 34.2581 34.1666 33.8888 34.1666H28.6538Z" fill="black"/>
</svg>
