<svg width="300" height="10" viewBox="0 0 300 10" fill="none" xmlns="http://www.w3.org/2000/svg">
<g clip-path="url(#clip0_183_124)">
<path d="M295.45 10C295.47 9.83 295.5 9.67 295.5 9.5C295.5 7.01 293.49 5 291 5C288.51 5 286.5 7.01 286.5 9.5C286.5 9.67 286.53 9.83 286.55 10H279.78C279.8 9.83 279.83 9.67 279.83 9.5C279.83 7.01 277.82 5 275.33 5C272.84 5 270.83 7.01 270.83 9.5C270.83 9.67 270.86 9.83 270.88 10H264.11C264.13 9.83 264.16 9.67 264.16 9.5C264.16 7.01 262.15 5 259.66 5C257.17 5 255.16 7.01 255.16 9.5C255.16 9.67 255.19 9.83 255.21 10H248.44C248.46 9.83 248.49 9.67 248.49 9.5C248.49 7.01 246.48 5 243.99 5C241.5 5 239.49 7.01 239.49 9.5C239.49 9.67 239.52 9.83 239.54 10H232.77C232.79 9.83 232.82 9.67 232.82 9.5C232.82 7.01 230.81 5 228.32 5C225.83 5 223.82 7.01 223.82 9.5C223.82 9.67 223.85 9.83 223.87 10H217.1C217.12 9.83 217.15 9.67 217.15 9.5C217.15 7.01 215.14 5 212.65 5C210.16 5 208.15 7.01 208.15 9.5C208.15 9.67 208.18 9.83 208.2 10H201.43C201.45 9.83 201.48 9.67 201.48 9.5C201.48 7.01 199.47 5 196.98 5C194.49 5 192.48 7.01 192.48 9.5C192.48 9.67 192.51 9.83 192.53 10H185.76C185.78 9.83 185.81 9.67 185.81 9.5C185.81 7.01 183.8 5 181.31 5C178.82 5 176.81 7.01 176.81 9.5C176.81 9.67 176.84 9.83 176.86 10H170.09C170.11 9.83 170.14 9.67 170.14 9.5C170.14 7.01 168.13 5 165.64 5C163.15 5 161.14 7.01 161.14 9.5C161.14 9.67 161.17 9.83 161.19 10H154.42C154.44 9.83 154.47 9.67 154.47 9.5C154.47 7.01 152.46 5 149.97 5C147.48 5 145.47 7.01 145.47 9.5C145.47 9.67 145.5 9.83 145.52 10H138.75C138.77 9.83 138.8 9.67 138.8 9.5C138.8 7.01 136.79 5 134.3 5C131.81 5 129.8 7.01 129.8 9.5C129.8 9.67 129.83 9.83 129.85 10H123.08C123.1 9.83 123.13 9.67 123.13 9.5C123.13 7.01 121.12 5 118.63 5C116.14 5 114.13 7.01 114.13 9.5C114.13 9.67 114.16 9.83 114.18 10H107.41C107.43 9.83 107.46 9.67 107.46 9.5C107.46 7.01 105.45 5 102.96 5C100.47 5 98.46 7.01 98.46 9.5C98.46 9.67 98.49 9.83 98.51 10H91.74C91.76 9.83 91.79 9.67 91.79 9.5C91.79 7.01 89.78 5 87.29 5C84.8 5 82.79 7.01 82.79 9.5C82.79 9.67 82.82 9.83 82.84 10H76.07C76.09 9.83 76.12 9.67 76.12 9.5C76.12 7.01 74.11 5 71.62 5C69.13 5 67.12 7.01 67.12 9.5C67.12 9.67 67.15 9.83 67.17 10H60.4C60.42 9.83 60.45 9.67 60.45 9.5C60.45 7.01 58.44 5 55.95 5C53.46 5 51.45 7.01 51.45 9.5C51.45 9.67 51.48 9.83 51.5 10H44.73C44.75 9.83 44.78 9.67 44.78 9.5C44.78 7.01 42.77 5 40.28 5C37.79 5 35.78 7.01 35.78 9.5C35.78 9.67 35.81 9.83 35.83 10H29.06C29.08 9.83 29.11 9.67 29.11 9.5C29.11 7.01 27.1 5 24.61 5C22.12 5 20.11 7.01 20.11 9.5C20.11 9.67 20.14 9.83 20.16 10H13.39C13.41 9.83 13.44 9.67 13.44 9.5C13.44 7.01 11.43 5 8.94 5C6.45 5 4.44 7.01 4.44 9.5C4.44 9.67 4.47 9.83 4.49 10H0V0H300V10H295.45Z" fill="white"/>
</g>
<defs>
<clipPath id="clip0_183_124">
<rect width="300" height="10" fill="white"/>
</clipPath>
</defs>
</svg>
