<svg width="300" height="10" viewBox="0 0 300 10" fill="none" xmlns="http://www.w3.org/2000/svg">
<path d="M295.45 0C295.47 0.17 295.5 0.33 295.5 0.5C295.5 2.99 293.49 5 291 5C288.51 5 286.5 2.99 286.5 0.5C286.5 0.33 286.53 0.17 286.55 0H279.78C279.8 0.17 279.83 0.33 279.83 0.5C279.83 2.99 277.82 5 275.33 5C272.84 5 270.83 2.99 270.83 0.5C270.83 0.33 270.86 0.17 270.88 0H264.11C264.13 0.17 264.16 0.33 264.16 0.5C264.16 2.99 262.15 5 259.66 5C257.17 5 255.16 2.99 255.16 0.5C255.16 0.33 255.19 0.17 255.21 0H248.44C248.46 0.17 248.49 0.33 248.49 0.5C248.49 2.99 246.48 5 243.99 5C241.5 5 239.49 2.99 239.49 0.5C239.49 0.33 239.52 0.17 239.54 0H232.77C232.79 0.17 232.82 0.33 232.82 0.5C232.82 2.99 230.81 5 228.32 5C225.83 5 223.82 2.99 223.82 0.5C223.82 0.33 223.85 0.17 223.87 0H217.1C217.12 0.17 217.15 0.33 217.15 0.5C217.15 2.99 215.14 5 212.65 5C210.16 5 208.15 2.99 208.15 0.5C208.15 0.33 208.18 0.17 208.2 0H201.43C201.45 0.17 201.48 0.33 201.48 0.5C201.48 2.99 199.47 5 196.98 5C194.49 5 192.48 2.99 192.48 0.5C192.48 0.33 192.51 0.17 192.53 0H185.76C185.78 0.17 185.81 0.33 185.81 0.5C185.81 2.99 183.8 5 181.31 5C178.82 5 176.81 2.99 176.81 0.5C176.81 0.33 176.84 0.17 176.86 0H170.09C170.11 0.17 170.14 0.33 170.14 0.5C170.14 2.99 168.13 5 165.64 5C163.15 5 161.14 2.99 161.14 0.5C161.14 0.33 161.17 0.17 161.19 0H154.42C154.44 0.17 154.47 0.33 154.47 0.5C154.47 2.99 152.46 5 149.97 5C147.48 5 145.47 2.99 145.47 0.5C145.47 0.33 145.5 0.17 145.52 0H138.75C138.77 0.17 138.8 0.33 138.8 0.5C138.8 2.99 136.79 5 134.3 5C131.81 5 129.8 2.99 129.8 0.5C129.8 0.33 129.83 0.17 129.85 0H123.08C123.1 0.17 123.13 0.33 123.13 0.5C123.13 2.99 121.12 5 118.63 5C116.14 5 114.13 2.99 114.13 0.5C114.13 0.33 114.16 0.17 114.18 0H107.41C107.43 0.17 107.46 0.33 107.46 0.5C107.46 2.99 105.45 5 102.96 5C100.47 5 98.46 2.99 98.46 0.5C98.46 0.33 98.49 0.17 98.51 0H91.74C91.76 0.17 91.79 0.33 91.79 0.5C91.79 2.99 89.78 5 87.29 5C84.8 5 82.79 2.99 82.79 0.5C82.79 0.33 82.82 0.17 82.84 0H76.07C76.09 0.17 76.12 0.33 76.12 0.5C76.12 2.99 74.11 5 71.62 5C69.13 5 67.12 2.99 67.12 0.5C67.12 0.33 67.15 0.17 67.17 0H60.4C60.42 0.17 60.45 0.33 60.45 0.5C60.45 2.99 58.44 5 55.95 5C53.46 5 51.45 2.99 51.45 0.5C51.45 0.33 51.48 0.17 51.5 0H44.73C44.75 0.17 44.78 0.33 44.78 0.5C44.78 2.99 42.77 5 40.28 5C37.79 5 35.78 2.99 35.78 0.5C35.78 0.33 35.81 0.17 35.83 0H29.06C29.08 0.17 29.11 0.33 29.11 0.5C29.11 2.99 27.1 5 24.61 5C22.12 5 20.11 2.99 20.11 0.5C20.11 0.33 20.14 0.17 20.16 0H13.39C13.41 0.17 13.44 0.33 13.44 0.5C13.44 2.99 11.43 5 8.94 5C6.45 5 4.5 2.99 4.5 0.5C4.5 0.33 4.53 0.17 4.55 0H0V10H300V0H295.45Z" fill="white"/>
</svg>
